<svg width='24' height='24' viewBox='0 0 24 24' xmlns='http://www.w3.org/2000/svg'
    xmlns:xlink='http://www.w3.org/1999/xlink'>
    <rect width='24' height='24' stroke='none' fill='#000000' opacity='0' />


    <g transform="matrix(0.25 0 0 0.25 12 12)">
        <g style="">
            <g transform="matrix(1 0 0 1 0 3)">
                <path
                    style="stroke: none; stroke-width: 1; stroke-dasharray: none; stroke-linecap: butt; stroke-dashoffset: 0; stroke-linejoin: miter; stroke-miterlimit: 4; fill: rgb(255,196,156); fill-rule: nonzero; opacity: 1;"
                    transform=" translate(-40, -43)"
                    d="M 0.5 63.5 L 0.5 36.5 L 24.5 36.5 L 24.5 22.5 L 55.5 22.5 L 55.5 40.5 L 79.5 40.5 L 79.5 63.5 z"
                    stroke-linecap="round" />
            </g>
            <g transform="matrix(1 0 0 1 0 3)">
                <path
                    style="stroke: none; stroke-width: 1; stroke-dasharray: none; stroke-linecap: butt; stroke-dashoffset: 0; stroke-linejoin: miter; stroke-miterlimit: 4; fill: rgb(176,129,89); fill-rule: nonzero; opacity: 1;"
                    transform=" translate(-40, -43)"
                    d="M 55 23 L 55 40 L 55 41 L 56 41 L 79 41 L 79 63 L 1 63 L 1 37 L 24 37 L 25 37 L 25 36 L 25 23 L 55 23 M 56 22 L 24 22 L 24 36 L 0 36 L 0 64 L 80 64 L 80 40 L 56 40 L 56 22 L 56 22 z"
                    stroke-linecap="round" />
            </g>
            <g transform="matrix(1 0 0 1 27.5 -2)">
                <path
                    style="stroke: none; stroke-width: 1; stroke-dasharray: none; stroke-linecap: butt; stroke-dashoffset: 0; stroke-linejoin: miter; stroke-miterlimit: 4; fill: rgb(153,201,158); fill-rule: nonzero; opacity: 1;"
                    transform=" translate(-67.5, -38)"
                    d="M 55.5 41.5 L 55.5 34.5 L 78 34.5 C 78.827 34.5 79.5 35.173 79.5 36 L 79.5 41.5 L 55.5 41.5 z"
                    stroke-linecap="round" />
            </g>
            <g transform="matrix(1 0 0 1 27.5 -2)">
                <path
                    style="stroke: none; stroke-width: 1; stroke-dasharray: none; stroke-linecap: butt; stroke-dashoffset: 0; stroke-linejoin: miter; stroke-miterlimit: 4; fill: rgb(94,156,118); fill-rule: nonzero; opacity: 1;"
                    transform=" translate(-67.5, -38)"
                    d="M 78 35 C 78.551 35 79 35.449 79 36 L 79 41 L 56 41 L 56 35 L 78 35 M 78 34 L 55 34 L 55 42 L 80 42 L 80 36 C 80 34.9 79.1 34 78 34 L 78 34 z"
                    stroke-linecap="round" />
            </g>
            <g transform="matrix(1 0 0 1 -27.5 -6)">
                <path
                    style="stroke: none; stroke-width: 1; stroke-dasharray: none; stroke-linecap: butt; stroke-dashoffset: 0; stroke-linejoin: miter; stroke-miterlimit: 4; fill: rgb(139,183,240); fill-rule: nonzero; opacity: 1;"
                    transform=" translate(-12.5, -34)"
                    d="M 0.5 37.5 L 0.5 32 C 0.5 31.173000000000002 1.173 30.5 2 30.5 L 24.5 30.5 L 24.5 37.5 L 0.5 37.5 z"
                    stroke-linecap="round" />
            </g>
            <g transform="matrix(1 0 0 1 -27.5 -6)">
                <path
                    style="stroke: none; stroke-width: 1; stroke-dasharray: none; stroke-linecap: butt; stroke-dashoffset: 0; stroke-linejoin: miter; stroke-miterlimit: 4; fill: rgb(78,122,181); fill-rule: nonzero; opacity: 1;"
                    transform=" translate(-12.5, -34)"
                    d="M 24 31 L 24 37 L 1 37 L 1 32 C 1 31.449 1.449 31 2 31 L 24 31 M 25 30 L 2 30 C 0.8999999999999999 30 0 30.9 0 32 L 0 38 L 25 38 L 25 30 L 25 30 z"
                    stroke-linecap="round" />
            </g>
            <g transform="matrix(1 0 0 1 0 -20)">
                <path
                    style="stroke: none; stroke-width: 1; stroke-dasharray: none; stroke-linecap: butt; stroke-dashoffset: 0; stroke-linejoin: miter; stroke-miterlimit: 4; fill: rgb(247,143,143); fill-rule: nonzero; opacity: 1;"
                    transform=" translate(-40, -20)"
                    d="M 24.5 23.5 L 24.5 18 C 24.5 17.173000000000002 25.173000000000002 16.5 26 16.5 L 54 16.5 C 54.827 16.5 55.5 17.173000000000002 55.5 18 L 55.5 23.5 L 24.5 23.5 z"
                    stroke-linecap="round" />
            </g>
            <g transform="matrix(1 0 0 1 0 -20)">
                <path
                    style="stroke: none; stroke-width: 1; stroke-dasharray: none; stroke-linecap: butt; stroke-dashoffset: 0; stroke-linejoin: miter; stroke-miterlimit: 4; fill: rgb(199,67,67); fill-rule: nonzero; opacity: 1;"
                    transform=" translate(-40, -20)"
                    d="M 54 17 C 54.551 17 55 17.449 55 18 L 55 23 L 25 23 L 25 18 C 25 17.449 25.449 17 26 17 L 54 17 M 54 16 L 26 16 C 24.895 16 24 16.895 24 18 L 24 24 L 56 24 L 56 18 C 56 16.9 55.1 16 54 16 L 54 16 z"
                    stroke-linecap="round" />
            </g>
            <g transform="matrix(1 0 0 1 0.03 5)">
                <path
                    style="stroke: none; stroke-width: 1; stroke-dasharray: none; stroke-linecap: butt; stroke-dashoffset: 0; stroke-linejoin: miter; stroke-miterlimit: 4; fill: rgb(176,129,89); fill-rule: nonzero; opacity: 1;"
                    transform=" translate(-40.03, -45)"
                    d="M 42.028 30 L 42.028 46 L 39.361 46 L 39.361 33.688 C 38.924 34 38.704 34.266 38.2 34.484 C 37.696000000000005 34.702000000000005 37.341 34.895 36.695 35.062000000000005 L 36.695 32.27 C 37.097 32.138000000000005 37.268 31.999000000000002 37.643 31.853 C 38.018 31.707 38.388 31.544 38.752 31.363000000000003 C 39.117000000000004 31.182000000000002 39.485 30.981 39.856 30.759000000000004 C 40.227000000000004 30.537000000000006 40.611000000000004 30.284000000000002 41.007000000000005 29.999000000000002 L 42.028 29.999000000000002 z M 18.028 58 L 8.027999999999999 58 L 8.027999999999999 56.782 C 8.027999999999999 56.284 8.099999999999998 55.818 8.238999999999999 55.382999999999996 C 8.377999999999998 54.94799999999999 8.566999999999998 54.538 8.806 54.153999999999996 C 9.045 53.769999999999996 9.322999999999999 53.407999999999994 9.639 53.068 C 9.956 52.727999999999994 10.299999999999999 52.399 10.661 52.08 C 11.022 51.762 11.394 51.454 11.772 51.158 C 12.15 50.862 12.522 50.564 12.883000000000001 50.264 C 13.222000000000001 49.979000000000006 13.533000000000001 49.699000000000005 13.816 49.424 C 14.099 49.15 14.338000000000001 48.866 14.538 48.574 C 14.738 48.282 14.894 47.972 15.005 47.647 C 15.116000000000001 47.321999999999996 15.172 46.967999999999996 15.172 46.588 C 15.172 46.171 15.105 45.807 14.978 45.496 C 14.85 45.185 14.667 44.925000000000004 14.434 44.717 C 14.200999999999999 44.50899999999999 13.923 44.351 13.606 44.245 C 13.289 44.138999999999996 12.939 44.086 12.562 44.086 C 11.911999999999999 44.086 11.245 44.236 10.572999999999999 44.536 C 9.900999999999998 44.836000000000006 9.250999999999998 45.286 8.628999999999998 45.886 L 8.628999999999998 43.439 C 8.956999999999997 43.198 9.284999999999998 42.988 9.617999999999999 42.808 C 9.950999999999999 42.628 10.296 42.479 10.650999999999998 42.358 C 11.006999999999998 42.236999999999995 11.378999999999998 42.147999999999996 11.772999999999998 42.089 C 12.166999999999998 42.03 12.584 42 13.028 42 C 13.745000000000001 42 14.4 42.093 14.984 42.28 C 15.567 42.467 16.067 42.741 16.484 43.103 C 16.901000000000003 43.465 17.217000000000002 43.916000000000004 17.445 44.458 C 17.673000000000002 45 17.784 45.620999999999995 17.784 46.324 C 17.784 46.96 17.706 47.533 17.544999999999998 48.041 C 17.383999999999997 48.55 17.162 49.022999999999996 16.866999999999997 49.461999999999996 C 16.572999999999997 49.900999999999996 16.223 50.318 15.805999999999997 50.712999999999994 C 15.388999999999996 51.10799999999999 14.927999999999997 51.513999999999996 14.416999999999998 51.931 C 13.988999999999997 52.275 13.560999999999998 52.61 13.133999999999999 52.934999999999995 C 12.705999999999998 53.26 12.322999999999999 53.577999999999996 11.983999999999998 53.88999999999999 C 11.644999999999998 54.20099999999999 11.366999999999997 54.510999999999996 11.155999999999999 54.82299999999999 C 10.944999999999999 55.13399999999999 10.838999999999999 55.446999999999996 10.838999999999999 55.760999999999996 L 10.838999999999999 55.815999999999995 L 18.028 55.815999999999995 L 18.028 58 z M 62.028 59.169 L 62.028 56.815 C 63.106 57.614 64.318 58.013 65.673 58.013 C 66.775 58.013 67.651 57.78 68.309 57.311 C 68.966 56.842999999999996 69.295 56.21 69.295 55.411 C 69.295 53.655 67.85900000000001 52.777 64.993 52.777 L 63.712999999999994 52.777 L 63.712999999999994 50.769 L 64.93599999999999 50.769 C 67.479 50.769 68.75399999999999 49.942 68.75399999999999 48.286 C 68.75399999999999 46.76 67.76199999999999 45.997 65.77799999999999 45.997 C 64.67099999999999 45.997 63.626999999999995 46.368 62.651999999999994 47.109 L 62.651999999999994 44.885000000000005 C 63.776 44.296 65.102 44 66.631 44 C 68.102 44 69.278 44.345 70.16 45.036 C 71.042 45.727000000000004 71.48599999999999 46.612 71.48599999999999 47.692 C 71.48599999999999 49.728 70.37899999999999 51.039 68.16399999999999 51.622 L 68.16399999999999 51.665 C 69.35799999999999 51.772999999999996 70.29799999999999 52.163 70.98999999999998 52.836 C 71.68199999999997 53.509 72.02799999999998 54.349 72.02799999999998 55.357 C 72.02799999999998 56.746 71.46899999999998 57.867 70.35599999999998 58.72 C 69.243 59.574 67.772 60 65.95 60 C 64.312 60 63.003 59.723 62.028 59.169 z"
                    stroke-linecap="round" />
            </g>
        </g>
    </g>
</svg>