<svg id='Chat_Bubble_48' width='48' height='48' viewBox='0 0 48 48' xmlns='http://www.w3.org/2000/svg' xmlns:xlink='http://www.w3.org/1999/xlink'><rect width='48' height='48' stroke='none' fill='#000000' opacity='0'/>


<g transform="matrix(0.92 0 0 0.92 24 24)" >
<g style="" >
<g transform="matrix(1 0 0 1 0 0)" >
<path style="stroke: none; stroke-width: 1; stroke-dasharray: none; stroke-linecap: butt; stroke-dashoffset: 0; stroke-linejoin: miter; stroke-miterlimit: 4; fill: rgb(33,150,243); fill-rule: nonzero; opacity: 1;" transform=" translate(-24, -24)" d="M 40 5 L 8 5 C 6.343 5 5 6.343 5 8 L 5 43 L 14 35 L 40 35 C 41.657 35 43 33.657 43 32 L 43 8 C 43 6.343 41.657 5 40 5 z" stroke-linecap="round" />
</g>
<g transform="matrix(1 0 0 1 0 -4)" >
<path style="stroke: none; stroke-width: 1; stroke-dasharray: none; stroke-linecap: butt; stroke-dashoffset: 0; stroke-linejoin: miter; stroke-miterlimit: 4; fill: rgb(227,242,253); fill-rule: nonzero; opacity: 1;" transform=" translate(-24, -20)" d="M 15 18 C 13.895430500338414 18 13 18.895430500338414 13 20 C 13 21.104569499661586 13.895430500338414 22 15 22 C 16.104569499661586 22 17 21.104569499661586 17 20 C 17 18.895430500338414 16.104569499661586 18 15 18 z M 24 18 C 22.895430500338414 18 22 18.895430500338414 22 20 C 22 21.104569499661586 22.895430500338414 22 24 22 C 25.104569499661586 22 26 21.104569499661586 26 20 C 26 18.895430500338414 25.104569499661586 18 24 18 z M 33 18 C 31.895430500338414 18 31 18.895430500338414 31 20 C 31 21.104569499661586 31.895430500338414 22 33 22 C 34.10456949966159 22 35 21.104569499661586 35 20 C 35 18.895430500338414 34.10456949966159 18 33 18 z" stroke-linecap="round" />
</g>
</g>
</g>
</svg>